<?xml version="1.0" standalone="no"?>
<!DOCTYPE svg PUBLIC "-//W3C//DTD SVG 20010904//EN"
 "http://www.w3.org/TR/2001/REC-SVG-20010904/DTD/svg10.dtd">
<svg version="1.0" xmlns="http://www.w3.org/2000/svg"
 width="700.000000pt" height="700.000000pt" viewBox="0 0 700.000000 700.000000"
 preserveAspectRatio="xMidYMid meet">
<metadata>
Created by potrace 1.14, written by Peter Selinger 2001-2017
</metadata>
<g transform="translate(0.000000,700.000000) scale(0.100000,-0.100000)"
fill="#000000" stroke="none">
<path d="M3325 6923 c-73 -8 -185 -37 -243 -65 -49 -23 -66 -37 -82 -68 -11
-22 -20 -45 -20 -53 0 -40 -146 -285 -189 -317 -22 -16 -41 -60 -41 -95 0 -45
16 -112 30 -120 4 -3 23 21 41 52 71 124 155 183 284 198 156 19 202 63 212
199 7 103 30 146 102 200 34 24 67 46 73 49 7 2 10 7 6 11 -7 8 -124 13 -173
9z"/>
<path d="M4290 6773 c-44 -51 -64 -107 -57 -162 6 -48 31 -102 57 -126 18 -16
23 -17 30 -5 6 8 10 26 11 40 4 107 11 202 18 242 11 65 -8 69 -59 11z"/>
<path d="M3718 6674 c-113 -27 -195 -86 -238 -171 -22 -41 -25 -61 -25 -143 1
-52 4 -117 9 -145 19 -118 22 -143 19 -189 -1 -27 -4 -50 -5 -52 -2 -1 -38 6
-80 15 -43 10 -80 16 -83 13 -3 -3 -5 8 -5 24 0 58 -22 109 -65 154 -46 47
-64 81 -60 115 11 103 11 100 -15 103 -38 4 -103 -48 -131 -105 -34 -69 -33
-156 2 -209 l27 -40 -189 0 -189 0 -1 31 c-3 128 -73 225 -163 225 -17 0 -25
-8 -32 -32 -7 -24 -30 -48 -84 -89 -89 -68 -110 -98 -110 -161 0 -27 -3 -48
-6 -48 -4 0 -23 9 -43 20 -206 113 -414 103 -613 -29 -147 -97 -273 -249 -363
-436 -30 -60 -56 -122 -60 -136 -3 -14 -31 -52 -61 -85 -166 -180 -308 -383
-405 -582 -66 -135 -149 -352 -163 -427 -1 -5 -5 -19 -9 -30 -3 -11 -8 -31
-11 -45 -3 -14 -14 -70 -25 -125 -11 -56 -20 -110 -20 -120 1 -11 -2 -31 -6
-45 -12 -47 -12 -414 0 -520 31 -257 95 -496 189 -702 14 -31 26 -60 26 -63 0
-4 -14 -4 -31 0 -17 4 -56 7 -88 7 -72 1 -101 -16 -159 -89 -26 -32 -62 -63
-88 -76 -24 -11 -44 -24 -44 -28 0 -14 28 -27 125 -59 122 -39 210 -82 250
-121 39 -37 71 -37 167 -3 l72 26 16 -23 c34 -51 149 -189 223 -266 l79 -82
-24 -33 c-12 -18 -23 -35 -24 -38 0 -3 -13 -30 -27 -60 -32 -66 -32 -66 -6
-176 28 -120 19 -193 -32 -266 -46 -64 7 -104 131 -100 121 4 214 44 290 123
43 46 88 134 98 192 4 23 10 42 12 42 3 0 43 -20 88 -44 l84 -43 -25 -26 c-14
-15 -42 -54 -63 -87 l-39 -60 -1 -140 c-1 -181 -26 -266 -117 -397 -23 -33 5
-43 121 -42 115 0 204 20 255 56 l28 20 24 -26 c31 -33 46 -27 121 52 97 100
201 278 220 377 5 22 9 43 10 48 1 4 2 16 3 27 1 17 4 19 20 10 11 -5 30 -10
43 -10 13 0 30 -4 38 -10 12 -8 12 -11 -3 -28 -21 -23 -35 -94 -31 -153 9
-129 52 -186 190 -256 118 -58 181 -113 217 -186 54 -111 45 -178 -40 -290
-64 -84 -67 -102 -36 -164 19 -36 37 -46 115 -62 62 -13 104 -46 115 -90 3
-14 10 -34 15 -43 24 -48 108 73 108 157 0 26 -9 63 -20 85 -11 22 -20 45 -20
53 0 18 33 61 117 151 80 87 115 150 115 210 -1 55 -20 98 -85 183 -88 116
-92 148 -35 273 17 36 31 85 33 110 l3 45 80 14 81 14 39 -35 c98 -88 210
-148 407 -218 147 -52 200 -78 243 -121 44 -43 69 -94 86 -174 8 -37 16 -69
19 -72 26 -26 88 130 128 321 28 131 30 291 6 362 -18 53 -71 115 -119 140
-16 8 -28 17 -28 20 0 6 120 -5 132 -12 4 -2 9 0 12 5 3 5 15 7 25 4 42 -11
226 72 306 138 26 21 50 39 54 39 4 0 21 -19 38 -43 87 -121 115 -228 74 -284
-22 -29 -54 -49 -124 -77 -28 -11 -38 -21 -35 -33 5 -28 100 -29 179 -3 126
43 205 132 215 244 10 121 -108 345 -203 385 -28 11 -28 12 -26 99 1 81 -13
171 -30 188 -19 20 -2 26 56 22 73 -6 126 -35 172 -94 69 -89 154 -157 252
-200 l56 -25 -16 25 c-10 15 -23 36 -31 48 -33 52 -43 240 -16 313 18 51 33
75 45 75 15 0 50 -52 105 -155 50 -95 91 -148 179 -232 82 -79 119 -98 195
-95 105 3 196 69 196 143 0 35 -23 38 -60 9 -34 -27 -76 -26 -94 2 -8 13 -17
61 -20 108 -7 93 -8 104 -26 170 -36 135 -166 296 -291 362 -57 29 -174 32
-323 8 -66 -11 -121 -18 -123 -16 -2 2 16 54 40 117 24 63 52 141 61 174 10
33 23 77 29 97 l12 37 92 -39 c92 -40 133 -49 133 -30 0 5 -16 40 -36 78 -55
105 -41 123 112 142 98 12 135 25 181 64 41 34 87 53 152 62 45 6 57 12 91 52
77 86 183 338 216 509 28 147 11 242 -42 243 -6 0 -22 -33 -34 -72 -70 -223
-172 -263 -515 -203 -77 14 -176 30 -220 37 -44 6 -81 12 -83 14 -2 1 -6 17
-8 36 -5 31 -29 168 -36 199 -2 8 17 24 46 38 97 48 212 190 303 372 85 172
101 314 78 679 -10 152 -7 280 9 380 14 86 69 204 116 249 39 37 169 108 210
115 30 5 140 61 140 72 0 47 -198 70 -366 44 -250 -40 -391 -116 -473 -257
-30 -53 -67 -159 -77 -223 -4 -25 -20 -48 -54 -80 -76 -72 -105 -163 -109
-341 -1 -51 -6 -55 -70 -65 -52 -9 -93 -27 -133 -62 l-35 -31 -21 29 -22 29
21 46 c22 51 22 97 -1 100 -8 1 -38 -5 -65 -14 l-51 -17 -97 96 -97 96 43 24
c79 43 112 58 167 75 81 24 135 53 169 90 123 136 130 376 17 665 -40 102 -43
122 -33 244 4 43 4 82 1 87 -9 16 -59 -18 -111 -75 -36 -39 -72 -98 -122 -201
-39 -80 -71 -147 -71 -150 0 -13 -113 -184 -143 -216 -18 -20 -78 -62 -133
-94 -54 -32 -127 -78 -162 -102 -52 -35 -67 -41 -83 -33 -16 9 -17 14 -8 32
42 79 49 259 13 338 -12 25 -40 63 -64 85 -95 87 -108 102 -129 160 -41 106
-20 213 49 260 61 41 -14 58 -132 29z m-1673 -773 c6 -1 -21 -14 -60 -30 -38
-15 -90 -38 -115 -50 -25 -12 -56 -27 -70 -32 -22 -9 -21 -6 10 24 77 73 152
102 235 88z m2675 -3756 c0 -10 -63 -75 -72 -75 -6 0 5 18 23 39 31 35 49 49
49 36z m-2661 -749 l-32 -29 -23 44 c-13 24 -23 47 -24 50 0 4 25 -3 55 -15
l55 -21 -31 -29z"/>
<path d="M1944 6376 c-7 -17 30 -155 51 -197 49 -94 152 59 110 163 -15 37
-149 65 -161 34z"/>
<path d="M6085 5493 c-75 -27 -140 -68 -198 -126 -74 -73 -86 -117 -89 -327
-3 -151 -5 -169 -27 -212 -13 -26 -37 -60 -53 -75 -15 -15 -28 -30 -28 -35 0
-21 181 7 200 31 3 3 22 15 44 26 80 40 103 95 141 335 10 65 34 136 58 170
32 49 83 74 192 94 52 10 95 21 95 25 0 13 -47 58 -84 81 -54 32 -178 39 -251
13z"/>
<path d="M6676 5338 c-148 -21 -324 -136 -382 -250 -48 -94 -20 -131 87 -116
79 10 141 48 197 119 84 107 116 136 177 161 131 53 141 59 120 70 -27 16
-140 25 -199 16z"/>
<path d="M5821 3020 c-18 -5 -43 -17 -54 -29 -66 -65 32 -245 163 -299 67 -28
177 -25 235 5 49 26 96 74 124 128 34 65 30 72 -43 77 -44 4 -79 14 -110 32
-25 14 -66 37 -90 51 -25 14 -55 28 -68 31 -43 9 -123 11 -157 4z"/>
<path d="M948 2063 c-20 -5 -41 -54 -41 -96 0 -120 10 -134 60 -85 33 34 37
42 37 92 1 60 -22 97 -56 89z"/>
<path d="M565 2031 c-109 -29 -182 -101 -258 -254 -55 -112 -89 -154 -172
-214 -105 -76 233 -81 435 -6 126 47 200 105 241 188 27 56 31 72 27 124 -5
67 -37 120 -91 147 -35 19 -137 27 -182 15z"/>
<path d="M813 1354 c-9 -24 9 -64 37 -85 27 -20 126 -33 136 -18 3 5 9 7 13 5
4 -3 18 4 30 15 22 21 22 21 3 35 -10 7 -50 21 -88 30 -38 9 -73 21 -78 25
-16 15 -46 10 -53 -7z"/>
<path d="M1955 722 c-81 -12 -189 -65 -155 -75 106 -32 132 -50 214 -149 58
-70 116 -100 183 -97 84 4 151 44 154 91 1 10 2 24 3 31 7 41 -63 115 -146
157 -63 31 -189 52 -253 42z"/>
</g>
</svg>
